<?xml version="1.0" encoding="utf-8"?>
<svg width="300px" height="300px" viewBox="0 0 300 300" version="1.1" xmlns:xlink="http://www.w3.org/1999/xlink" xmlns="http://www.w3.org/2000/svg">
  <defs>
    <path d="M300 0L300 0L300 300L0 300L0 0L300 0Z" id="path_1" />
    <clipPath id="clip_1">
      <use xlink:href="#path_1" clip-rule="evenodd" fill-rule="evenodd" />
    </clipPath>
  </defs>
  <g id="Compose-Multiplatform" clip-path="url(#clip_1)">
    <path d="M300 0L300 0L300 300L0 300L0 0L300 0Z" id="Compose-Multiplatform" fill="none" stroke="none" />
    <path d="M149.237 4.00423e-06C154.81 0.0944758 160.29 1.58503 165.15 4.3352L266.581 61.6165C270.664 63.9258 274.317 67.0119 277.235 70.6228L277.34 70.5598L278.852 72.7747L279.03 73.0266L280.92 75.8083L280.783 75.8922C283.292 80.4584 284.667 85.4339 284.719 90.5039L284.719 206.956C284.772 212.834 283.281 218.628 280.384 223.751C277.487 228.873 273.299 233.146 268.239 236.137L167.91 295.329C163.733 297.796 159.083 299.307 154.296 299.801L154.296 299.948L147.882 300L147.882 299.843C143.159 299.423 138.551 297.995 134.394 295.644L27.83 235.444C20.5871 231.372 16.084 223.73 16 215.385L16 92.0679C16.063 87.7222 16.8188 83.5235 18.2568 79.6606L18.1414 79.5871L20.8915 73.8454L21.049 73.9293C23.5997 69.7831 27.0742 66.3506 31.3359 63.8314L131.665 4.65011C136.724 1.6585 142.498 0.0524835 148.376 0L149.237 0L149.237 4.00423e-06Z" id="Shape-Path" fill="#FFFFFF" stroke="none" />
    <path d="M148.93 7C154.24 7.09 159.46 8.51 164.09 11.13L260.72 65.7C264.61 67.9 268.09 70.84 270.87 74.28L270.97 74.22L272.41 76.33L272.58 76.57L274.38 79.22L274.25 79.3C276.64 83.65 277.95 88.39 278 93.22L278 204.16C278.05 209.76 276.63 215.28 273.87 220.16C271.11 225.04 267.12 229.11 262.3 231.96L166.72 288.35C162.74 290.7 158.31 292.14 153.75 292.61L153.75 292.75L147.64 292.8L147.64 292.65C143.14 292.25 138.75 290.89 134.79 288.65L33.27 231.3C26.37 227.42 22.08 220.14 22 212.19L22 94.71C22.06 90.57 22.78 86.57 24.15 82.89L24.04 82.82L26.66 77.35L26.81 77.43C29.24 73.48 32.55 70.21 36.61 67.81L132.19 11.43C137.01 8.58 142.51 7.05 148.11 7L148.93 7L148.93 7ZM29.49 85.88L29.28 86.56C28.43 89.38 28.01 92.42 28.04 95.59L28.04 212.17C28.1 217.93 31.22 223.22 36.23 226.05L137.76 283.4C140.78 285.1 144.1 286.18 147.52 286.57L147.73 286.59L147.75 281.66L147.77 260.97L147.74 237.49L147.6 237.48C145.5 237.2 143.46 236.6 141.54 235.7L140.83 235.35L140.2 235.01L78.69 200.27C76.45 199.01 74.59 197.18 73.2901 194.97C71.9901 192.76 71.2901 190.25 71.2601 187.65L71.2601 117.04C71.2401 114.79 71.5201 112.6 72.1001 110.54L72.3 109.88L29.49 85.88L29.49 85.88ZM269.05 82.41L226.85 107.61L226.94 107.8C227.98 110.05 228.59 112.44 228.71 114.89L228.73 115.56L228.73 182.76C228.76 186.36 227.85 189.91 226.08 193.05C224.31 196.19 221.74 198.81 218.64 200.64L160.74 234.8C158.74 235.98 156.56 236.81 154.3 237.25L153.8 237.34L153.81 242.12L153.83 269.8L153.79 286.06L153.78 286.53L154.68 286.4C157.57 285.93 160.36 284.97 162.94 283.56L163.64 283.16L259.22 226.77C263.13 224.46 266.37 221.16 268.6 217.21C270.83 213.25 271.99 208.78 271.94 204.21L271.94 93.27C271.91 89.84 271.04 86.42 269.44 83.2L269.05 82.41L269.05 82.41ZM145.99 93.58C145.08 93.85 144.2 94.23 143.37 94.72L104.56 117.62C103.43 118.28 102.44 119.16 101.64 120.19C101.33 120.59 101.04 121.02 100.79 121.46C100.66 121.68 100.55 121.91 100.43 122.14L100.22 122.66C99.74 123.81 99.42 125.04 99.29 126.33C99.24 126.82 99.22 127.32 99.23 127.83L99.23 175.19C99.24 176.55 99.62 177.89 100.31 179.07C101 180.24 101.99 181.22 103.18 181.88L144.41 205.17C146.2 206.18 148.22 206.7 150.28 206.69L150.72 206.67L150.72 219.42L150.75 231.58L150.72 206.66C152.63 206.58 154.5 206.03 156.15 205.05L194.96 182.15C196.73 181.1 198.2 179.61 199.22 177.81C199.38 177.52 199.53 177.23 199.66 176.92C200.38 175.35 200.75 173.65 200.73 171.92L200.73 126.86C200.72 126.04 200.61 125.23 200.41 124.45C200.28 123.93 200.11 123.42 199.9 122.92C199.8 122.67 199.68 122.43 199.56 122.19C199.42 121.91 199.26 121.63 199.1 121.36L198.92 121.08L198.74 120.8C198.46 120.39 198.15 119.99 197.82 119.61C196.83 118.47 195.65 117.51 194.33 116.76L155.09 94.6C153.52 93.71 151.77 93.2 149.96 93.1C148.64 93.04 147.28 93.2 145.99 93.58L145.99 93.58ZM148.15 13.05C143.61 13.09 139.15 14.33 135.24 16.64L39.66 73.02C36.75 74.74 34.34 77.02 32.48 79.76L32.06 80.39L74.96 104.41L75.41 103.8C76.71 102.11 78.28 100.65 80.12 99.48L80.68 99.13L138.58 64.97C141.68 63.14 145.22 62.15 148.82 62.12C152.42 62.09 155.97 63 159.11 64.77L217.65 97.84C219.67 98.98 221.51 100.43 223.09 102.13L223.48 102.56L265.6 77.41L265.14 76.88C263.2 74.74 260.93 72.86 258.42 71.35L257.73 70.95L161.1 16.38C157.16 14.15 152.69 13 148.15 13.05L148.15 13.05Z" id="Group" fill="#4285F4" fill-rule="evenodd" stroke="none" />
  </g>
</svg>