<?xml version="1.0" encoding="utf-8"?>
<svg width="680px" height="300px" viewBox="0 0 680 300" version="1.1" xmlns:xlink="http://www.w3.org/1999/xlink" xmlns="http://www.w3.org/2000/svg">
  <defs>
    <path d="M680 0L680 0L680 300L0 300L0 0L680 0Z" id="path_1" />
    <path d="M155 49C163.285 49 170 55.7146 170 64L170 284C170 292.285 163.285 299 155 299L15 299C6.7146 299 0 292.285 0 284L0 64C0 55.7146 6.7146 49 15 49L155 49Z" id="path_2" />
    <path d="M0 0L164 0L164 40L0 40L0 0Z" id="path_3" />
    <path d="M235 49C243.285 49 250 55.7146 250 64L250 188C250 196.285 243.285 203 235 203L15 203C6.7146 203 0 196.285 0 188L0 64C0 55.7146 6.7146 49 15 49L235 49Z" id="path_4" />
    <path d="M182 49C190.285 49 197 55.7146 197 64L197 227C197 235.285 190.285 242 182 242L15 242C6.7146 242 0 235.285 0 227L0 64C0 55.7146 6.7146 49 15 49L182 49Z" id="path_5" />
    <clipPath id="clip_1">
      <use xlink:href="#path_1" clip-rule="evenodd" fill-rule="evenodd" />
    </clipPath>
    <clipPath id="clip_2">
      <use xlink:href="#path_2" />
    </clipPath>
    <clipPath id="clip_3">
      <use xlink:href="#path_3" clip-rule="evenodd" fill-rule="evenodd" />
    </clipPath>
    <clipPath id="clip_4">
      <use xlink:href="#path_4" />
    </clipPath>
    <clipPath id="clip_5">
      <use xlink:href="#path_5" />
    </clipPath>
  </defs>
  <g id="Frame" clip-path="url(#clip_1)">
    <path d="M680 0L680 0L680 300L0 300L0 0L680 0Z" id="Frame" fill="none" stroke="none" />
    <g id="Column" transform="translate(6 -5)">
      <g id="Rectangle">
        <use stroke="none" fill="#FC4850" fill-opacity="0.101960786" xlink:href="#path_2" />
        <g clip-path="url(#clip_2)">
          <use xlink:href="#path_2" fill="none" stroke="#FC4850" stroke-width="10" stroke-dasharray="5 5" />
        </g>
      </g>
      <path d="M23 72.6209L147 72.6209L147 133L23 133L23 72.6209Z" id="Rectangle" fill="#59ADFF" fill-rule="evenodd" stroke="none" />
      <path d="M23 144L147 144L147 204.379L23 204.379L23 144Z" id="Rectangle-2" fill="#E88BFF" fill-rule="evenodd" stroke="none" />
      <path d="M23 216L147 216L147 276.379L23 276.379L23 216Z" id="Rectangle-3" fill="#B032E7" fill-rule="evenodd" stroke="none" />
      <g id="Column" clip-path="url(#clip_3)" transform="translate(3 0)">
        <g transform="translate(17.261368, 0)" id="Column" fill="#FC4850">
          <path d="M24.2386 16.875L21.0682 16.875Q20.6847 15.0597 19.598 13.8196Q18.5114 12.5795 16.9773 11.9403Q15.4432 11.3011 13.7045 11.3011Q11.3267 11.3011 9.4027 12.5028Q7.47869 13.7045 6.3473 16.044Q5.21591 18.3835 5.21591 21.7841Q5.21591 25.1847 6.3473 27.5241Q7.47869 29.8636 9.4027 31.0653Q11.3267 32.267 13.7045 32.267Q15.4432 32.267 16.9773 31.6278Q18.5114 30.9886 19.598 29.7486Q20.6847 28.5085 21.0682 26.6932L24.2386 26.6932Q23.7528 29.3778 22.2571 31.2891Q20.7614 33.2003 18.5497 34.2166Q16.3381 35.233 13.7045 35.233Q10.3551 35.233 7.74716 33.5966Q5.1392 31.9602 3.64347 28.9432Q2.14773 25.9261 2.14773 21.7841Q2.14773 17.642 3.64347 14.625Q5.1392 11.608 7.74716 9.97159Q10.3551 8.33523 13.7045 8.33523Q16.3381 8.33523 18.5497 9.35156Q20.7614 10.3679 22.2571 12.2791Q23.7528 14.1903 24.2386 16.875ZM36.9205 35.2841Q34.2614 35.2841 32.2607 34.0185Q30.2599 32.7528 29.1413 30.4773Q28.0227 28.2017 28.0227 25.1591Q28.0227 22.0909 29.1413 19.8026Q30.2599 17.5142 32.2607 16.2486Q34.2614 14.983 36.9205 14.983Q39.5795 14.983 41.5803 16.2486Q43.581 17.5142 44.6996 19.8026Q45.8182 22.0909 45.8182 25.1591Q45.8182 28.2017 44.6996 30.4773Q43.581 32.7528 41.5803 34.0185Q39.5795 35.2841 36.9205 35.2841ZM36.9205 32.5739Q38.9403 32.5739 40.2443 31.5384Q41.5483 30.5028 42.1747 28.8153Q42.8011 27.1278 42.8011 25.1591Q42.8011 23.1903 42.1747 21.4901Q41.5483 19.7898 40.2443 18.7415Q38.9403 17.6932 36.9205 17.6932Q34.9006 17.6932 33.5966 18.7415Q32.2926 19.7898 31.6662 21.4901Q31.0398 23.1903 31.0398 25.1591Q31.0398 27.1278 31.6662 28.8153Q32.2926 30.5028 33.5966 31.5384Q34.9006 32.5739 36.9205 32.5739ZM53.4375 8.69318L53.4375 34.875L50.4205 34.875L50.4205 8.69318L53.4375 8.69318ZM71.3352 26.8466L71.3352 15.2386L74.3523 15.2386L74.3523 34.875L71.3352 34.875L71.3352 31.5511L71.1307 31.5511Q70.4403 33.0469 68.983 34.0888Q67.5256 35.1307 65.3011 35.1307Q62.5398 35.1307 60.75 33.3026Q58.9602 31.4744 58.9602 27.7159L58.9602 15.2386L61.9773 15.2386L61.9773 27.5114Q61.9773 29.6591 63.1854 30.9375Q64.3935 32.2159 66.2727 32.2159Q67.3977 32.2159 68.5675 31.6406Q69.7372 31.0653 70.5362 29.8764Q71.3352 28.6875 71.3352 26.8466ZM79.875 34.875L79.875 15.2386L82.7898 15.2386L82.7898 18.3068L83.0454 18.3068Q83.6591 16.7344 85.027 15.8587Q86.3949 14.983 88.3125 14.983Q90.2557 14.983 91.5533 15.8587Q92.8508 16.7344 93.5795 18.3068L93.7841 18.3068Q94.5383 16.7855 96.0469 15.8842Q97.5554 14.983 99.6648 14.983Q102.298 14.983 103.973 16.6257Q105.648 18.2685 105.648 21.733L105.648 34.875L102.631 34.875L102.631 21.733Q102.631 19.5597 101.442 18.6264Q100.253 17.6932 98.642 17.6932Q96.571 17.6932 95.4332 18.9396Q94.2955 20.1861 94.2955 22.0909L94.2955 34.875L91.2273 34.875L91.2273 21.4261Q91.2273 19.7514 90.1406 18.7223Q89.054 17.6932 87.3409 17.6932Q86.1648 17.6932 85.1484 18.3196Q84.1321 18.946 83.5121 20.0518Q82.892 21.1577 82.892 22.6023L82.892 34.875L79.875 34.875ZM114.188 23.0625L114.188 34.875L111.17 34.875L111.17 15.2386L114.085 15.2386L114.085 18.3068L114.341 18.3068Q115.031 16.8111 116.438 15.897Q117.844 14.983 120.068 14.983Q123.047 14.983 124.881 16.8111Q126.716 18.6392 126.716 22.3977L126.716 34.875L123.699 34.875L123.699 22.6023Q123.699 20.2884 122.497 18.9908Q121.295 17.6932 119.199 17.6932Q117.038 17.6932 115.613 19.093Q114.188 20.4929 114.188 23.0625Z" />
        </g>
      </g>
    </g>
    <g id="Row" transform="translate(203 -5)">
      <g id="Rectangle">
        <use stroke="none" fill="#FC4850" fill-opacity="0.101960786" xlink:href="#path_4" />
        <g clip-path="url(#clip_4)">
          <use xlink:href="#path_4" fill="none" stroke="#FC4850" stroke-width="10" stroke-dasharray="5 5" />
        </g>
      </g>
      <path d="M22 71L84 71L84 181L22 181L22 71Z" id="Rectangle" fill="#59ADFF" fill-rule="evenodd" stroke="none" />
      <path d="M94 71L156 71L156 181L94 181L94 71Z" id="Rectangle-2" fill="#E88BFF" fill-rule="evenodd" stroke="none" />
      <path d="M166 71L228 71L228 181L166 181L166 71Z" id="Rectangle-3" fill="#B032E7" fill-rule="evenodd" stroke="none" />
      <g id="Row" clip-path="url(#clip_3)" transform="translate(43 0)">
        <g transform="translate(45.565342, 0)" id="Row" fill="#FC4850">
          <path d="M3.17045 34.875L3.17045 8.69318L12.017 8.69318Q15.0852 8.69318 17.054 9.73508Q19.0227 10.777 19.9688 12.5923Q20.9148 14.4077 20.9148 16.7216Q20.9148 19.3295 19.7195 21.2663Q18.5241 23.2031 16.0185 24.0597L21.9375 34.875L18.2557 34.875L12.733 24.6349Q12.4134 24.6477 12.0682 24.6477L6.34091 24.6477L6.34091 34.875L3.17045 34.875ZM6.34091 21.7841L11.9659 21.7841Q15.1108 21.7841 16.4531 20.429Q17.7955 19.0739 17.7955 16.7216Q17.7955 14.3565 16.4467 12.9311Q15.098 11.5057 11.9148 11.5057L6.34091 11.5057L6.34091 21.7841ZM33.5455 35.2841Q30.8864 35.2841 28.8857 34.0185Q26.8849 32.7528 25.7663 30.4773Q24.6477 28.2017 24.6477 25.1591Q24.6477 22.0909 25.7663 19.8026Q26.8849 17.5142 28.8857 16.2486Q30.8864 14.983 33.5455 14.983Q36.2045 14.983 38.2053 16.2486Q40.206 17.5142 41.3246 19.8026Q42.4432 22.0909 42.4432 25.1591Q42.4432 28.2017 41.3246 30.4773Q40.206 32.7528 38.2053 34.0185Q36.2045 35.2841 33.5455 35.2841ZM33.5455 32.5739Q35.5653 32.5739 36.8693 31.5384Q38.1733 30.5028 38.7997 28.8153Q39.4261 27.1278 39.4261 25.1591Q39.4261 23.1903 38.7997 21.4901Q38.1733 19.7898 36.8693 18.7415Q35.5653 17.6932 33.5455 17.6932Q31.5256 17.6932 30.2216 18.7415Q28.9176 19.7898 28.2912 21.4901Q27.6648 23.1903 27.6648 25.1591Q27.6648 27.1278 28.2912 28.8153Q28.9176 30.5028 30.2216 31.5384Q31.5256 32.5739 33.5455 32.5739ZM50.8295 34.875L44.8466 15.2386L48.017 15.2386L52.2614 30.2727L52.4659 30.2727L56.6591 15.2386L59.8807 15.2386L64.0227 30.2216L64.2273 30.2216L68.4716 15.2386L71.642 15.2386L65.6591 34.875L62.6932 34.875L58.3977 19.7898L58.0909 19.7898L53.7955 34.875L50.8295 34.875Z" />
        </g>
      </g>
    </g>
    <g id="Box" transform="translate(477 -5)">
      <g id="Rectangle">
        <use stroke="none" fill="#FC4850" fill-opacity="0.101960786" xlink:href="#path_5" />
        <g clip-path="url(#clip_5)">
          <use xlink:href="#path_5" fill="none" stroke="#FC4850" stroke-width="10" stroke-dasharray="5 5" />
        </g>
      </g>
      <path d="M31 90L165 90L165 200L31 200L31 90Z" id="Rectangle" fill="#59ADFF" fill-rule="evenodd" stroke="none" />
      <path d="M42 113L155 113L155 178L42 178L42 113Z" id="Rectangle-2" fill="#E88BFF" fill-rule="evenodd" stroke="none" />
      <path d="M74 105L123 105L123 186L74 186L74 105Z" id="Rectangle-3" fill="#B032E7" fill-rule="evenodd" stroke="none" />
      <g id="Box" clip-path="url(#clip_3)" transform="translate(16 0)">
        <g transform="translate(50.24432, 0)" id="Box" fill="#FC4850">
          <path d="M3.17045 34.875L3.17045 8.69318L12.3239 8.69318Q15.0597 8.69318 16.8366 9.63281Q18.6136 10.5724 19.483 12.1513Q20.3523 13.7301 20.3523 15.6477Q20.3523 17.3352 19.7578 18.4347Q19.1634 19.5341 18.1982 20.1733Q17.233 20.8125 16.108 21.1193L16.108 21.375Q17.3097 21.4517 18.5241 22.2188Q19.7386 22.9858 20.5568 24.4176Q21.375 25.8494 21.375 27.9205Q21.375 29.8892 20.4801 31.4616Q19.5852 33.0341 17.6548 33.9545Q15.7244 34.875 12.6307 34.875L3.17045 34.875ZM6.34091 32.0625L12.6307 32.0625Q15.7372 32.0625 17.0476 30.8544Q18.358 29.6463 18.358 27.9205Q18.358 26.5909 17.6804 25.4595Q17.0028 24.3281 15.75 23.6442Q14.4972 22.9602 12.7841 22.9602L6.34091 22.9602L6.34091 32.0625ZM6.34091 20.1989L12.2216 20.1989Q14.3693 20.1989 15.8523 18.9588Q17.3352 17.7188 17.3352 15.6477Q17.3352 13.9219 16.1335 12.7138Q14.9318 11.5057 12.3239 11.5057L6.34091 11.5057L6.34091 20.1989ZM34.1591 35.2841Q31.5 35.2841 29.4993 34.0185Q27.4986 32.7528 26.38 30.4773Q25.2614 28.2017 25.2614 25.1591Q25.2614 22.0909 26.38 19.8026Q27.4986 17.5142 29.4993 16.2486Q31.5 14.983 34.1591 14.983Q36.8182 14.983 38.8189 16.2486Q40.8196 17.5142 41.9382 19.8026Q43.0568 22.0909 43.0568 25.1591Q43.0568 28.2017 41.9382 30.4773Q40.8196 32.7528 38.8189 34.0185Q36.8182 35.2841 34.1591 35.2841ZM34.1591 32.5739Q36.179 32.5739 37.483 31.5384Q38.7869 30.5028 39.4134 28.8153Q40.0398 27.1278 40.0398 25.1591Q40.0398 23.1903 39.4134 21.4901Q38.7869 19.7898 37.483 18.7415Q36.179 17.6932 34.1591 17.6932Q32.1392 17.6932 30.8352 18.7415Q29.5313 19.7898 28.9048 21.4901Q28.2784 23.1903 28.2784 25.1591Q28.2784 27.1278 28.9048 28.8153Q29.5313 30.5028 30.8352 31.5384Q32.1392 32.5739 34.1591 32.5739ZM49.0909 15.2386L53.7955 23.267L58.5 15.2386L61.9773 15.2386L55.6364 25.0568L61.9773 34.875L58.5 34.875L53.7955 27.2557L49.0909 34.875L45.6136 34.875L51.8523 25.0568L45.6136 15.2386L49.0909 15.2386Z" />
        </g>
      </g>
    </g>
  </g>
</svg>