<?xml version="1.0" encoding="utf-8"?>
<svg width="720px" height="720px" viewBox="0 0 720 720" version="1.1" xmlns:xlink="http://www.w3.org/1999/xlink" xmlns="http://www.w3.org/2000/svg">
  <defs>
    <path d="M640 0C684.189 0 720 35.8112 720 80L720 640C720 684.189 684.189 720 640 720L80 720C35.8112 720 0 684.189 0 640L0 80C0 35.8112 35.8112 0 80 0L640 0Z" id="path_1" />
    <clipPath id="clip_1">
      <use xlink:href="#path_1" clip-rule="evenodd" fill-rule="evenodd" />
    </clipPath>
  </defs>
  <g id="jetpack-icon" clip-path="url(#clip_1)">
    <path d="M640 0C684.189 0 720 35.8112 720 80L720 640C720 684.189 684.189 720 640 720L80 720C35.8112 720 0 684.189 0 640L0 80C0 35.8112 35.8112 0 80 0L640 0Z" id="jetpack-icon" fill="none" stroke="none" />
    <path d="M52.7161 193.664C49.7533 200.724 47.7766 208.291 47.0142 216.212C46.7226 219.248 46.5915 222.328 46.6229 225.436L46.6267 516.307C46.649 518.438 46.8101 520.547 47.1071 522.624C47.999 528.853 50.1052 534.788 53.2456 540.112C55.3389 543.661 57.8919 546.939 60.8507 549.853C63.8095 552.766 67.1742 555.316 70.8909 557.408L324.146 700.456C335.319 706.766 347.769 709.87 360.178 709.768C361.077 709.76 361.975 709.7 362.874 709.659C374.443 709.137 385.916 705.888 396.238 699.787L634.653 559.119C636.039 558.301 637.391 557.441 638.709 556.541C641.343 554.74 643.837 552.779 646.18 550.675C649.696 547.519 652.873 544.041 655.679 540.301C657.549 537.807 659.254 535.197 660.784 532.487C661.784 530.717 662.68 528.89 663.527 527.04C664.451 525.023 665.284 522.965 666.02 520.866C666.277 520.134 666.524 519.4 666.758 518.659C668.998 511.54 670.175 504.026 670.105 496.34L670.109 219.536C670.06 214.507 669.386 209.558 668.167 204.755C667.354 201.553 666.299 198.416 665.026 195.363C664.389 193.836 663.698 192.331 662.954 190.849C662.08 189.106 661.114 187.407 660.101 185.734C659.392 184.561 658.67 183.394 657.897 182.259C656.176 179.721 654.296 177.282 652.278 174.955C646.222 167.975 638.914 162.011 630.856 157.454L389.832 21.3222C385.625 18.9473 381.241 17.0264 376.748 15.5593C370.757 13.6034 364.573 12.4539 358.356 12.1103C356.802 12.0245 355.245 11.9884 353.689 12.0033C351.983 12.0182 350.279 12.1095 348.577 12.2466C344.373 12.5857 340.198 13.3048 336.093 14.382C335.326 14.5833 334.565 14.8058 333.803 15.0328C328.254 16.6874 322.852 18.9934 317.739 22.0147L79.3251 162.66C72.1579 166.894 66.1803 172.265 61.3794 178.468C59.4593 180.949 57.7276 183.563 56.1838 186.291C55.4113 187.655 54.6864 189.047 54.0081 190.465C53.5137 191.499 53.16 192.604 52.7155 193.664L52.7161 193.664Z" id="path40-2" fill="#FFFFFF" stroke="none" />
    <g id="g86" transform="translate(75.61841 42.370247)">
      <path d="M171.54 385.073C170.375 383.098 169.594 380.898 169.263 378.588C169.594 380.898 170.375 383.098 171.54 385.073L171.54 385.073Z" id="path6" fill="#083042" stroke="none" />
      <path d="M171.343 256.594L171.343 256.594C170.245 259.212 169.512 262.018 169.229 264.956C169.512 262.018 170.245 259.212 171.343 256.594L171.343 256.594Z" id="path8" fill="#083042" stroke="none" />
      <path d="M174.36 388.685C175.457 389.766 176.705 390.711 178.084 391.487L272.002 444.536L178.084 391.487C176.705 390.711 175.457 389.766 174.36 388.685L174.36 388.685Z" id="path10" fill="#083042" stroke="none" />
      <path d="M286.447 511.595C286.196 511.602 285.946 511.624 285.695 511.626C278.83 511.682 271.942 509.965 265.761 506.474L125.648 427.333C117.423 422.704 112.316 414.025 112.224 404.594L112.221 243.671C112.153 236.803 113.51 230.183 116.296 224.349L6.74919 162.977C2.13705 172.617 -0.109037 183.56 0.0040668 194.913L0.00778683 460.541C0.159152 476.108 8.58906 490.434 22.1662 498.075L253.443 628.709C263.646 634.472 275.016 637.306 286.348 637.213L286.351 637.026C286.609 620.461 286.528 553.639 286.446 511.595L286.447 511.595Z" id="path12" fill="#083042" stroke="none" />
      <path d="M396.59 253.653L396.59 253.653C396.327 253.218 396.059 252.786 395.772 252.365C395.134 251.423 394.437 250.519 393.689 249.656C394.437 250.519 395.134 251.423 395.772 252.365C396.059 252.786 396.327 253.218 396.59 253.653L396.59 253.653Z" id="path14" fill="#3DDB85" stroke="none" />
      <path d="M172.63 253.86C173.202 252.848 173.844 251.879 174.556 250.959C173.844 251.879 173.202 252.848 172.63 253.86L172.63 253.86Z" id="path16" fill="#3DDB85" stroke="none" />
      <path d="M281.062 189.316C281.693 189.265 282.326 189.232 282.958 189.226C282.326 189.232 281.693 189.265 281.062 189.316L281.062 189.316Z" id="path18" fill="#3DDB85" stroke="none" />
      <path d="M116.308 224.323C119.31 218.046 123.97 212.688 130.315 208.94L262.217 131.128C274.487 123.877 289.689 123.737 302.102 130.745L435.448 206.06C441.392 209.421 446.598 214.167 450.408 219.783C450.423 219.805 450.436 219.828 450.45 219.85L558.231 155.483C551.942 146.213 543.349 138.379 533.536 132.831L313.429 8.51297C292.941 -3.05449 267.848 -2.82372 247.593 9.14537L29.8698 137.585C19.3969 143.772 11.7052 152.616 6.74968 162.977L116.297 224.349C116.301 224.34 116.304 224.331 116.308 224.323L116.308 224.323Z" id="path20" fill="#3DDC84" stroke="none" />
      <path d="M275.584 190.35C275.866 190.265 276.148 190.183 276.433 190.108C276.149 190.183 275.866 190.265 275.584 190.35L275.584 190.35Z" id="path22" fill="#3DDB85" stroke="none" />
      <path d="M171.823 255.408C172.074 254.882 172.343 254.366 172.63 253.86C172.343 254.366 172.074 254.882 171.823 255.408C171.639 255.791 171.508 256.201 171.343 256.594L171.343 256.594C171.508 256.201 171.639 255.791 171.823 255.408L171.823 255.408Z" id="path24" fill="#3DDB85" stroke="none" />
      <path d="M558.231 155.483L450.451 219.85C454.578 225.935 457.091 233.014 457.164 240.406L457.161 393.547C457.291 407.806 449.817 421.041 437.547 428.28L305.645 506.104C299.714 509.609 293.097 511.418 286.446 511.595C286.528 553.639 286.609 620.461 286.351 637.026L286.348 637.213C297.742 637.121 309.12 634.103 319.279 628.098L537.003 499.637C557.257 487.689 569.593 465.843 569.379 442.307L569.382 189.525C569.261 177.279 565.087 165.551 558.23 155.483L558.231 155.483Z" id="path26" fill="#4285F4" stroke="none" />
      <path d="M399.058 377.117C398.971 377.392 398.88 377.664 398.784 377.936C398.88 377.664 398.972 377.392 399.058 377.117L399.058 377.117Z" id="path28" fill="#4285F4" stroke="none" />
      <path d="M397.648 255.55C397.324 254.904 396.965 254.274 396.59 253.653L396.59 253.653C396.965 254.274 397.324 254.904 397.648 255.55L397.648 255.55Z" id="path30" fill="#4285F4" stroke="none" />
      <path d="M298.737 444.288L387.153 392.122C387.666 391.818 388.168 391.499 388.656 391.165C388.168 391.499 387.666 391.818 387.153 392.121L298.737 444.288Z" id="path32" fill="#4285F4" stroke="none" />
      <path d="M397.86 380.225C397.546 380.911 397.214 381.589 396.843 382.245C397.214 381.589 397.546 380.911 397.86 380.225L397.86 380.225Z" id="path34" fill="#4285F4" stroke="none" />
      <path d="M391.427 388.99C392.731 387.82 393.909 386.53 394.95 385.143C393.909 386.53 392.731 387.82 391.427 388.99L391.427 388.99Z" id="path36" fill="#4285F4" stroke="none" />
      <path d="M396.843 382.245C396.276 383.25 395.643 384.218 394.95 385.143C395.643 384.218 396.276 383.25 396.843 382.245L396.843 382.245Z" id="path38" fill="#4285F4" stroke="none" />
      <path d="M171.343 256.594C170.245 259.212 169.512 262.018 169.229 264.956C169.121 266.082 169.072 267.224 169.084 268.377L169.085 376.245C169.093 377.035 169.153 377.817 169.263 378.588C169.594 380.898 170.375 383.098 171.54 385.073C172.316 386.389 173.263 387.605 174.36 388.685C175.457 389.766 176.705 390.711 178.083 391.487L272.002 444.536C276.146 446.876 280.763 448.027 285.364 447.989C285.698 447.986 286.031 447.964 286.364 447.949C290.655 447.755 294.909 446.55 298.737 444.288L387.152 392.121C387.666 391.818 388.168 391.499 388.656 391.165C389.633 390.498 390.558 389.771 391.427 388.99C392.731 387.82 393.909 386.53 394.95 385.143C395.643 384.218 396.275 383.25 396.843 382.245C397.214 381.589 397.546 380.911 397.86 380.225C398.203 379.477 398.512 378.714 398.785 377.936C398.88 377.664 398.971 377.392 399.058 377.117C399.889 374.477 400.326 371.691 400.3 368.84L400.301 266.189C400.283 264.324 400.033 262.489 399.581 260.707C399.279 259.52 398.888 258.356 398.416 257.224C398.18 256.658 397.923 256.1 397.648 255.55C397.324 254.904 396.965 254.274 396.59 253.653C396.327 253.218 396.059 252.786 395.772 252.365C395.134 251.423 394.437 250.519 393.688 249.656C391.443 247.067 388.733 244.856 385.744 243.166L296.361 192.682C294.801 191.801 293.176 191.089 291.509 190.545C289.288 189.819 286.994 189.393 284.689 189.266C284.112 189.234 283.535 189.221 282.958 189.226C282.325 189.232 281.693 189.265 281.062 189.316C279.503 189.442 277.955 189.709 276.432 190.108C276.148 190.183 275.866 190.265 275.583 190.349C273.525 190.963 271.522 191.818 269.626 192.939L181.211 245.096C178.553 246.667 176.337 248.658 174.556 250.959C173.844 251.879 173.202 252.848 172.629 253.86C172.343 254.366 172.074 254.882 171.823 255.408C171.639 255.791 171.508 256.201 171.343 256.594L171.343 256.594Z" id="path40" fill="#D6F0FF" stroke="none" />
      <path d="M286.364 447.949C286.031 447.964 285.698 447.987 285.364 447.989C280.763 448.027 276.146 446.876 272.002 444.536L178.083 391.487C176.705 390.711 175.457 389.766 174.36 388.685C173.263 387.605 172.316 386.389 171.54 385.073C170.375 383.098 169.594 380.898 169.263 378.588C169.153 377.817 169.093 377.035 169.085 376.245L169.084 268.377C169.073 267.224 169.121 266.082 169.229 264.956C169.512 262.018 170.245 259.212 171.343 256.594L145.983 240.979L116.297 224.349C113.511 230.183 112.153 236.803 112.222 243.671L112.225 404.594C112.316 414.025 117.423 422.704 125.649 427.333L265.761 506.474C271.943 509.965 278.831 511.682 285.696 511.626C285.947 511.624 286.197 511.602 286.448 511.595C286.408 491.082 286.368 476.467 286.368 476.467L286.364 447.949Z" id="path42" fill="#083042" stroke="none" />
      <path d="M286.364 447.949C286.031 447.964 285.698 447.987 285.364 447.989C280.763 448.027 276.146 446.876 272.002 444.536L178.083 391.487C176.705 390.711 175.457 389.766 174.36 388.685C173.263 387.605 172.316 386.389 171.54 385.073C170.375 383.098 169.594 380.898 169.263 378.588C169.153 377.817 169.093 377.035 169.085 376.245L169.084 268.377C169.073 267.224 169.121 266.082 169.229 264.956C169.512 262.018 170.245 259.212 171.343 256.594L145.983 240.979L116.297 224.349C113.511 230.183 112.153 236.803 112.222 243.671L112.225 404.594C112.316 414.025 117.423 422.704 125.649 427.333L265.761 506.474C271.943 509.965 278.831 511.682 285.696 511.626C285.947 511.624 286.197 511.602 286.448 511.595C286.408 491.082 286.368 476.467 286.368 476.467L286.364 447.949Z" id="path44" fill="#041619" stroke="none" />
      <path d="M435.448 206.06L302.102 130.745C289.689 123.737 274.487 123.877 262.217 131.128L130.315 208.94C123.97 212.688 119.31 218.046 116.308 224.323C116.304 224.332 116.301 224.34 116.297 224.349L145.983 240.979L171.343 256.594C171.508 256.201 171.64 255.791 171.823 255.408C172.075 254.882 172.343 254.366 172.63 253.86C173.202 252.848 173.845 251.879 174.557 250.959C176.337 248.658 178.554 246.667 181.212 245.096L269.627 192.939C271.523 191.818 273.526 190.963 275.584 190.35C275.866 190.266 276.149 190.183 276.433 190.108C277.955 189.709 279.504 189.442 281.063 189.316C281.694 189.265 282.326 189.232 282.959 189.226C283.536 189.221 284.113 189.234 284.689 189.266C286.995 189.393 289.288 189.819 291.51 190.545C293.176 191.089 294.802 191.801 296.362 192.682L385.745 243.166C388.733 244.856 391.443 247.068 393.689 249.656C394.437 250.519 395.134 251.424 395.773 252.365C396.06 252.786 396.327 253.218 396.59 253.653L419.391 238.399L450.451 219.85C450.436 219.828 450.423 219.805 450.408 219.783C446.598 214.167 441.392 209.421 435.448 206.06L435.448 206.06Z" id="path46" fill="#3DDB85" stroke="none" />
      <path d="M435.448 206.06L302.102 130.745C289.689 123.737 274.487 123.877 262.217 131.128L130.315 208.94C123.97 212.688 119.31 218.046 116.308 224.323C116.304 224.332 116.301 224.34 116.297 224.349L145.983 240.979L171.343 256.594C171.508 256.201 171.64 255.791 171.823 255.408C172.075 254.882 172.343 254.366 172.63 253.86C173.202 252.848 173.845 251.879 174.557 250.959C176.337 248.658 178.554 246.667 181.212 245.096L269.627 192.939C271.523 191.818 273.526 190.963 275.584 190.35C275.866 190.266 276.149 190.183 276.433 190.108C277.955 189.709 279.504 189.442 281.063 189.316C281.694 189.265 282.326 189.232 282.959 189.226C283.536 189.221 284.113 189.234 284.689 189.266C286.995 189.393 289.288 189.819 291.51 190.545C293.176 191.089 294.802 191.801 296.362 192.682L385.745 243.166C388.733 244.856 391.443 247.068 393.689 249.656C394.437 250.519 395.134 251.424 395.773 252.365C396.06 252.786 396.327 253.218 396.59 253.653L419.391 238.399L450.451 219.85C450.436 219.828 450.423 219.805 450.408 219.783C446.598 214.167 441.392 209.421 435.448 206.06L435.448 206.06Z" id="path48" fill="#37BF6E" stroke="none" />
      <path d="M396.59 253.653C396.966 254.274 397.324 254.904 397.648 255.55C397.924 256.1 398.18 256.658 398.416 257.224C398.889 258.356 399.28 259.52 399.581 260.707C400.033 262.489 400.283 264.324 400.301 266.189L400.3 368.84C400.326 371.691 399.889 374.477 399.058 377.117C398.972 377.392 398.88 377.664 398.785 377.936C398.512 378.714 398.203 379.478 397.86 380.225C397.546 380.911 397.214 381.589 396.843 382.245C396.276 383.25 395.643 384.218 394.95 385.143C393.909 386.53 392.731 387.82 391.427 388.99C390.558 389.771 389.634 390.498 388.656 391.165C388.168 391.499 387.666 391.818 387.153 392.122L298.737 444.288C294.909 446.55 290.655 447.755 286.364 447.949L286.368 476.467C286.368 476.467 286.408 491.082 286.448 511.595C293.098 511.418 299.716 509.609 305.646 506.104L437.548 428.279C449.819 421.041 457.292 407.806 457.163 393.547L457.164 240.406C457.091 233.014 454.578 225.935 450.45 219.85L419.391 238.399L396.59 253.653Z" id="path50" fill="#4285F4" stroke="none" />
      <path d="M396.59 253.653C396.966 254.274 397.324 254.904 397.648 255.55C397.924 256.1 398.18 256.658 398.416 257.224C398.889 258.356 399.28 259.52 399.581 260.707C400.033 262.489 400.283 264.324 400.301 266.189L400.3 368.84C400.326 371.691 399.889 374.477 399.058 377.117C398.972 377.392 398.88 377.664 398.785 377.936C398.512 378.714 398.203 379.478 397.86 380.225C397.546 380.911 397.214 381.589 396.843 382.245C396.276 383.25 395.643 384.218 394.95 385.143C393.909 386.53 392.731 387.82 391.427 388.99C390.558 389.771 389.634 390.498 388.656 391.165C388.168 391.499 387.666 391.818 387.153 392.122L298.737 444.288C294.909 446.55 290.655 447.755 286.364 447.949L286.368 476.467C286.368 476.467 286.408 491.082 286.448 511.595C293.098 511.418 299.716 509.609 305.646 506.104L437.548 428.279C449.819 421.041 457.292 407.806 457.163 393.547L457.164 240.406C457.091 233.014 454.578 225.935 450.45 219.85L419.391 238.399L396.59 253.653Z" id="path52" fill="#3870B2" stroke="none" />
      <path d="M275.584 190.35C273.526 190.963 271.522 191.818 269.626 192.939L181.211 245.096L269.626 192.939C271.522 191.818 273.526 190.963 275.584 190.35L275.584 190.35Z" id="path54" fill="#D6F0FF" stroke="none" />
      <path d="M275.584 190.35C273.526 190.963 271.522 191.818 269.626 192.939L181.211 245.096L269.626 192.939C271.522 191.818 273.526 190.963 275.584 190.35L275.584 190.35Z" id="path56" fill="#000000" fill-opacity="0.1" stroke="none" />
      <path d="M393.689 249.656C391.443 247.067 388.733 244.856 385.745 243.166L296.362 192.682L385.745 243.166C388.733 244.856 391.443 247.067 393.689 249.656L393.689 249.656Z" id="path58" fill="#D6F0FF" stroke="none" />
      <path d="M393.689 249.656C391.443 247.067 388.733 244.856 385.745 243.166L296.362 192.682L385.745 243.166C388.733 244.856 391.443 247.067 393.689 249.656L393.689 249.656Z" id="path60" fill="#000000" fill-opacity="0.1" stroke="none" />
      <path d="M282.958 189.226C283.535 189.221 284.113 189.234 284.689 189.266C284.112 189.234 283.535 189.221 282.958 189.226L282.958 189.226Z" id="path62" fill="#D6F0FF" stroke="none" />
      <path d="M282.958 189.226C283.535 189.221 284.113 189.234 284.689 189.266C284.112 189.234 283.535 189.221 282.958 189.226L282.958 189.226Z" id="path64" fill="#000000" fill-opacity="0.1" stroke="none" />
      <path d="M276.433 190.108C277.955 189.709 279.504 189.442 281.062 189.316C279.504 189.442 277.955 189.709 276.433 190.108L276.433 190.108Z" id="path66" fill="#D6F0FF" stroke="none" />
      <path d="M276.433 190.108C277.955 189.709 279.504 189.442 281.062 189.316C279.504 189.442 277.955 189.709 276.433 190.108L276.433 190.108Z" id="path68" fill="#000000" fill-opacity="0.1" stroke="none" />
      <path d="M284.689 189.266C286.994 189.393 289.288 189.819 291.509 190.545C289.288 189.819 286.994 189.393 284.689 189.266L284.689 189.266Z" id="path70" fill="#D6F0FF" stroke="none" />
      <path d="M284.689 189.266C286.994 189.393 289.288 189.819 291.509 190.545C289.288 189.819 286.994 189.393 284.689 189.266L284.689 189.266Z" id="path72" fill="#000000" fill-opacity="0.1" stroke="none" />
      <path d="M398.785 377.936C398.512 378.714 398.203 379.477 397.86 380.225C398.203 379.478 398.512 378.714 398.785 377.936L398.785 377.936Z" id="path74" fill="#D6F0FF" stroke="none" />
      <path d="M398.785 377.936C398.512 378.714 398.203 379.477 397.86 380.225C398.203 379.478 398.512 378.714 398.785 377.936L398.785 377.936Z" id="path76" fill="#000000" fill-opacity="0.1" stroke="none" />
      <path d="M398.416 257.224C398.889 258.356 399.28 259.52 399.581 260.707C399.28 259.52 398.889 258.356 398.416 257.224L398.416 257.224Z" id="path78" fill="#D6F0FF" stroke="none" />
      <path d="M398.416 257.224C398.889 258.356 399.28 259.52 399.581 260.707C399.28 259.52 398.889 258.356 398.416 257.224L398.416 257.224Z" id="path80" fill="#000000" fill-opacity="0.1" stroke="none" />
      <path d="M399.058 377.117C399.889 374.477 400.326 371.691 400.3 368.84L400.301 266.189L400.3 368.84C400.326 371.691 399.889 374.477 399.058 377.117L399.058 377.117Z" id="path82" fill="#D6F0FF" stroke="none" />
      <path d="M399.058 377.117C399.889 374.477 400.326 371.691 400.3 368.84L400.301 266.189L400.3 368.84C400.326 371.691 399.889 374.477 399.058 377.117L399.058 377.117Z" id="path84" fill="#000000" fill-opacity="0.1" stroke="none" />
    </g>
  </g>
</svg>