<?xml version="1.0" encoding="utf-8"?>
<svg width="720px" height="720px" viewBox="0 0 720 720" version="1.1" xmlns:xlink="http://www.w3.org/1999/xlink" xmlns="http://www.w3.org/2000/svg">
  <defs>
    <path d="M720 0L720 0L720 720L0 720L0 0L720 0Z" id="path_1" />
    <clipPath id="clip_1">
      <use xlink:href="#path_1" clip-rule="evenodd" fill-rule="evenodd" />
    </clipPath>
  </defs>
  <g id="jetpack-logo" clip-path="url(#clip_1)">
    <path d="M720 0L720 0L720 720L0 720L0 0L720 0Z" id="jetpack-logo" fill="none" stroke="none" />
    <g id="g86" transform="translate(48.000015 10.999954)">
      <path d="M188.442 423.014C187.162 420.845 186.304 418.428 185.941 415.89C186.304 418.428 187.162 420.845 188.442 423.014L188.442 423.014Z" id="path6" fill="#083042" stroke="none" />
      <path d="M188.226 281.876L188.226 281.876C187.019 284.753 186.214 287.835 185.903 291.062C186.214 287.835 187.019 284.753 188.226 281.876L188.226 281.876Z" id="path8" fill="#083042" stroke="none" />
      <path d="M191.54 426.983C192.745 428.17 194.116 429.208 195.63 430.06L298.803 488.337L195.63 430.06C194.116 429.208 192.745 428.17 191.54 426.983L191.54 426.983Z" id="path10" fill="#083042" stroke="none" />
      <path d="M314.671 562.003C314.395 562.011 314.121 562.034 313.845 562.036C306.303 562.099 298.737 560.212 291.947 556.378L138.028 469.438C128.993 464.353 123.382 454.819 123.282 444.459L123.279 267.68C123.203 260.135 124.694 252.863 127.755 246.454L7.4142 179.036C2.34761 189.626 -0.11978 201.647 0.00446751 214.118L0.00855407 505.919C0.174833 523.019 9.43535 538.756 24.3503 547.151L278.415 690.657C289.624 696.987 302.113 700.1 314.562 699.998L314.565 699.793C314.849 681.595 314.759 608.189 314.67 562.003L314.671 562.003Z" id="path12" fill="#083042" stroke="none" />
      <path d="M435.666 278.646L435.666 278.646C435.377 278.168 435.084 277.693 434.768 277.23C434.067 276.196 433.301 275.203 432.479 274.255C433.301 275.203 434.067 276.196 434.768 277.23C435.083 277.693 435.377 278.168 435.666 278.646L435.666 278.646Z" id="path14" fill="#3DDB85" stroke="none" />
      <path d="M189.639 278.873C190.268 277.762 190.973 276.697 191.756 275.686C190.973 276.697 190.268 277.762 189.639 278.873L189.639 278.873Z" id="path16" fill="#3DDB85" stroke="none" />
      <path d="M308.756 207.97C309.449 207.914 310.143 207.877 310.838 207.871C310.143 207.877 309.449 207.914 308.756 207.97L308.756 207.97Z" id="path18" fill="#3DDB85" stroke="none" />
      <path d="M127.768 246.426C131.066 239.531 136.185 233.644 143.155 229.527L288.053 144.048C301.533 136.083 318.232 135.929 331.868 143.628L478.353 226.363C484.883 230.056 490.602 235.269 494.787 241.438C494.803 241.463 494.817 241.488 494.834 241.512L613.234 170.803C606.326 160.619 596.885 152.014 586.106 145.918L344.312 9.35176C321.804 -3.35545 294.239 -3.10194 271.989 10.0465L32.8129 151.141C21.3081 157.937 12.8586 167.654 7.41472 179.036L127.756 246.454C127.76 246.445 127.763 246.435 127.768 246.426L127.768 246.426Z" id="path20" fill="#3DDC84" stroke="none" />
      <path d="M302.737 209.105C303.047 209.012 303.357 208.922 303.67 208.84C303.358 208.922 303.047 209.012 302.737 209.105L302.737 209.105Z" id="path22" fill="#3DDB85" stroke="none" />
      <path d="M188.753 280.574C189.029 279.996 189.324 279.429 189.639 278.873C189.324 279.429 189.029 279.996 188.753 280.573C188.551 280.994 188.407 281.445 188.226 281.876L188.226 281.876C188.407 281.445 188.551 280.994 188.753 280.574L188.753 280.574Z" id="path24" fill="#3DDB85" stroke="none" />
      <path d="M613.234 170.803L494.834 241.512C499.368 248.197 502.129 255.973 502.209 264.094L502.206 432.324C502.348 447.988 494.138 462.526 480.659 470.478L335.76 555.97C329.245 559.822 321.976 561.808 314.67 562.003C314.759 608.189 314.849 681.595 314.565 699.793L314.562 699.998C327.079 699.897 339.578 696.581 350.737 689.985L589.914 548.867C612.164 535.742 625.715 511.743 625.48 485.887L625.483 208.199C625.351 194.747 620.765 181.863 613.233 170.803L613.234 170.803Z" id="path26" fill="#4285F4" stroke="none" />
      <path d="M438.378 414.275C438.282 414.577 438.182 414.876 438.077 415.174C438.182 414.876 438.283 414.577 438.378 414.275L438.378 414.275Z" id="path28" fill="#4285F4" stroke="none" />
      <path d="M436.829 280.73C436.473 280.02 436.079 279.328 435.666 278.646L435.666 278.646C436.079 279.328 436.473 280.02 436.829 280.73L436.829 280.73Z" id="path30" fill="#4285F4" stroke="none" />
      <path d="M328.172 488.064L425.299 430.758C425.863 430.425 426.414 430.074 426.951 429.707C426.414 430.074 425.863 430.424 425.299 430.758L328.172 488.064Z" id="path32" fill="#4285F4" stroke="none" />
      <path d="M437.062 417.689C436.716 418.443 436.352 419.187 435.944 419.908C436.352 419.187 436.716 418.443 437.062 417.689L437.062 417.689Z" id="path34" fill="#4285F4" stroke="none" />
      <path d="M429.995 427.318C431.427 426.032 432.721 424.615 433.864 423.091C432.721 424.615 431.427 426.032 429.995 427.318L429.995 427.318Z" id="path36" fill="#4285F4" stroke="none" />
      <path d="M435.944 419.908C435.321 421.012 434.626 422.076 433.864 423.091C434.626 422.076 435.321 421.012 435.944 419.908L435.944 419.908Z" id="path38" fill="#4285F4" stroke="none" />
      <path d="M188.226 281.876C187.019 284.753 186.214 287.835 185.903 291.062C185.784 292.299 185.731 293.554 185.744 294.82L185.745 413.317C185.754 414.185 185.82 415.044 185.941 415.89C186.304 418.428 187.162 420.845 188.442 423.014C189.294 424.46 190.335 425.796 191.54 426.983C192.745 428.17 194.116 429.208 195.63 430.06L298.803 488.336C303.354 490.907 308.426 492.171 313.482 492.13C313.848 492.127 314.214 492.102 314.58 492.086C319.293 491.873 323.967 490.549 328.172 488.064L425.299 430.758C425.863 430.424 426.414 430.074 426.951 429.707C428.024 428.974 429.04 428.175 429.995 427.318C431.427 426.032 432.721 424.615 433.864 423.091C434.626 422.076 435.321 421.012 435.944 419.908C436.352 419.187 436.716 418.443 437.062 417.689C437.438 416.868 437.778 416.029 438.077 415.174C438.182 414.876 438.282 414.577 438.378 414.275C439.29 411.375 439.77 408.314 439.742 405.182L439.743 292.416C439.723 290.368 439.448 288.352 438.952 286.395C438.621 285.09 438.191 283.812 437.672 282.569C437.413 281.947 437.131 281.333 436.828 280.73C436.472 280.02 436.079 279.328 435.666 278.646C435.377 278.168 435.083 277.693 434.768 277.23C434.067 276.196 433.301 275.203 432.479 274.255C430.012 271.411 427.035 268.982 423.752 267.125L325.562 211.667C323.848 210.699 322.063 209.917 320.232 209.319C317.791 208.522 315.272 208.054 312.739 207.914C312.106 207.879 311.472 207.865 310.838 207.871C310.143 207.877 309.449 207.914 308.755 207.97C307.043 208.108 305.342 208.401 303.67 208.84C303.357 208.922 303.047 209.012 302.737 209.105C300.476 209.779 298.276 210.718 296.193 211.949L199.066 269.246C196.146 270.971 193.711 273.159 191.755 275.686C190.973 276.697 190.268 277.762 189.639 278.873C189.324 279.428 189.029 279.996 188.752 280.573C188.551 280.994 188.407 281.445 188.226 281.876L188.226 281.876Z" id="path40" fill="#D6F0FF" stroke="none" />
      <path d="M314.58 492.086C314.214 492.102 313.848 492.127 313.482 492.13C308.426 492.171 303.354 490.907 298.803 488.336L195.63 430.06C194.116 429.208 192.745 428.17 191.54 426.983C190.335 425.796 189.295 424.46 188.442 423.014C187.162 420.845 186.304 418.428 185.941 415.89C185.82 415.044 185.754 414.185 185.745 413.317L185.744 294.82C185.732 293.554 185.784 292.299 185.903 291.062C186.214 287.835 187.019 284.753 188.226 281.876L160.366 264.723L127.756 246.454C124.695 252.863 123.204 260.135 123.279 267.68L123.282 444.459C123.383 454.819 128.993 464.353 138.029 469.438L291.947 556.378C298.737 560.212 306.304 562.099 313.846 562.036C314.121 562.035 314.396 562.011 314.671 562.003C314.628 539.468 314.584 523.413 314.584 523.413L314.58 492.086Z" id="path42" fill="#083042" stroke="none" />
      <path d="M314.58 492.086C314.214 492.102 313.848 492.127 313.482 492.13C308.426 492.171 303.354 490.907 298.803 488.336L195.63 430.06C194.116 429.208 192.745 428.17 191.54 426.983C190.335 425.796 189.295 424.46 188.442 423.014C187.162 420.845 186.304 418.428 185.941 415.89C185.82 415.044 185.754 414.185 185.745 413.317L185.744 294.82C185.732 293.554 185.784 292.299 185.903 291.062C186.214 287.835 187.019 284.753 188.226 281.876L160.366 264.723L127.756 246.454C124.695 252.863 123.204 260.135 123.279 267.68L123.282 444.459C123.383 454.819 128.993 464.353 138.029 469.438L291.947 556.378C298.737 560.212 306.304 562.099 313.846 562.036C314.121 562.035 314.396 562.011 314.671 562.003C314.628 539.468 314.584 523.413 314.584 523.413L314.58 492.086Z" id="path44" fill="#041619" stroke="none" />
      <path d="M478.353 226.363L331.868 143.628C318.232 135.929 301.533 136.083 288.053 144.049L143.155 229.527C136.185 233.644 131.066 239.531 127.768 246.426C127.764 246.435 127.76 246.445 127.756 246.454L160.367 264.723L188.226 281.876C188.407 281.445 188.551 280.994 188.753 280.573C189.029 279.996 189.324 279.429 189.639 278.873C190.268 277.762 190.974 276.697 191.756 275.686C193.712 273.159 196.147 270.971 199.067 269.246L296.193 211.949C298.276 210.718 300.477 209.779 302.737 209.105C303.048 209.012 303.358 208.922 303.67 208.84C305.343 208.401 307.044 208.108 308.756 207.97C309.449 207.914 310.144 207.877 310.839 207.871C311.473 207.865 312.106 207.88 312.74 207.914C315.272 208.054 317.792 208.522 320.232 209.319C322.063 209.917 323.849 210.7 325.563 211.667L423.753 267.125C427.035 268.982 430.012 271.411 432.479 274.255C433.302 275.203 434.067 276.196 434.769 277.23C435.084 277.693 435.378 278.168 435.667 278.646L460.714 261.889L494.834 241.512C494.818 241.488 494.804 241.463 494.787 241.438C490.602 235.269 484.883 230.056 478.353 226.363L478.353 226.363Z" id="path46" fill="#3DDB85" stroke="none" />
      <path d="M478.353 226.363L331.868 143.628C318.232 135.929 301.533 136.083 288.053 144.049L143.155 229.527C136.185 233.644 131.066 239.531 127.768 246.426C127.764 246.435 127.76 246.445 127.756 246.454L160.367 264.723L188.226 281.876C188.407 281.445 188.551 280.994 188.753 280.573C189.029 279.996 189.324 279.429 189.639 278.873C190.268 277.762 190.974 276.697 191.756 275.686C193.712 273.159 196.147 270.971 199.067 269.246L296.193 211.949C298.276 210.718 300.477 209.779 302.737 209.105C303.048 209.012 303.358 208.922 303.67 208.84C305.343 208.401 307.044 208.108 308.756 207.97C309.449 207.914 310.144 207.877 310.839 207.871C311.473 207.865 312.106 207.88 312.74 207.914C315.272 208.054 317.792 208.522 320.232 209.319C322.063 209.917 323.849 210.7 325.563 211.667L423.753 267.125C427.035 268.982 430.012 271.411 432.479 274.255C433.302 275.203 434.067 276.196 434.769 277.23C435.084 277.693 435.378 278.168 435.667 278.646L460.714 261.889L494.834 241.512C494.818 241.488 494.804 241.463 494.787 241.438C490.602 235.269 484.883 230.056 478.353 226.363L478.353 226.363Z" id="path48" fill="#37BF6E" stroke="none" />
      <path d="M435.666 278.646C436.079 279.328 436.473 280.02 436.829 280.73C437.131 281.333 437.413 281.947 437.672 282.569C438.191 283.812 438.621 285.09 438.952 286.395C439.449 288.352 439.723 290.368 439.743 292.416L439.742 405.182C439.77 408.314 439.29 411.374 438.378 414.275C438.283 414.577 438.182 414.876 438.077 415.174C437.778 416.029 437.438 416.868 437.062 417.689C436.717 418.443 436.352 419.187 435.944 419.908C435.321 421.012 434.626 422.076 433.865 423.091C432.722 424.615 431.427 426.032 429.995 427.318C429.04 428.175 428.024 428.974 426.951 429.707C426.414 430.074 425.864 430.424 425.299 430.758L328.172 488.064C323.967 490.549 319.293 491.873 314.58 492.086L314.585 523.413C314.585 523.413 314.628 539.468 314.672 562.003C321.978 561.808 329.247 559.822 335.762 555.97L480.66 470.478C494.14 462.526 502.349 447.987 502.207 432.324L502.209 264.094C502.129 255.973 499.368 248.197 494.834 241.512L460.714 261.889L435.666 278.646Z" id="path50" fill="#4285F4" stroke="none" />
      <path d="M435.666 278.646C436.079 279.328 436.473 280.02 436.829 280.73C437.131 281.333 437.413 281.947 437.672 282.569C438.191 283.812 438.621 285.09 438.952 286.395C439.449 288.352 439.723 290.368 439.743 292.416L439.742 405.182C439.77 408.314 439.29 411.374 438.378 414.275C438.283 414.577 438.182 414.876 438.077 415.174C437.778 416.029 437.438 416.868 437.062 417.689C436.717 418.443 436.352 419.187 435.944 419.908C435.321 421.012 434.626 422.076 433.865 423.091C432.722 424.615 431.427 426.032 429.995 427.318C429.04 428.175 428.024 428.974 426.951 429.707C426.414 430.074 425.864 430.424 425.299 430.758L328.172 488.064C323.967 490.549 319.293 491.873 314.58 492.086L314.585 523.413C314.585 523.413 314.628 539.468 314.672 562.003C321.978 561.808 329.247 559.822 335.762 555.97L480.66 470.478C494.14 462.526 502.349 447.987 502.207 432.324L502.209 264.094C502.129 255.973 499.368 248.197 494.834 241.512L460.714 261.889L435.666 278.646Z" id="path52" fill="#3870B2" stroke="none" />
      <path d="M302.737 209.105C300.476 209.779 298.276 210.718 296.193 211.949L199.066 269.246L296.193 211.949C298.276 210.718 300.476 209.779 302.737 209.105L302.737 209.105Z" id="path54" fill="#D6F0FF" stroke="none" />
      <path d="M302.737 209.105C300.476 209.779 298.276 210.718 296.193 211.949L199.066 269.246L296.193 211.949C298.276 210.718 300.476 209.779 302.737 209.105L302.737 209.105Z" id="path56" fill="#000000" fill-opacity="0.1" stroke="none" />
      <path d="M432.479 274.255C430.012 271.411 427.035 268.982 423.752 267.125L325.562 211.667L423.752 267.125C427.035 268.982 430.012 271.411 432.479 274.255L432.479 274.255Z" id="path58" fill="#D6F0FF" stroke="none" />
      <path d="M432.479 274.255C430.012 271.411 427.035 268.982 423.752 267.125L325.562 211.667L423.752 267.125C427.035 268.982 430.012 271.411 432.479 274.255L432.479 274.255Z" id="path60" fill="#000000" fill-opacity="0.1" stroke="none" />
      <path d="M310.838 207.871C311.472 207.865 312.106 207.88 312.739 207.914C312.106 207.879 311.472 207.865 310.838 207.871L310.838 207.871Z" id="path62" fill="#D6F0FF" stroke="none" />
      <path d="M310.838 207.871C311.472 207.865 312.106 207.88 312.739 207.914C312.106 207.879 311.472 207.865 310.838 207.871L310.838 207.871Z" id="path64" fill="#000000" fill-opacity="0.1" stroke="none" />
      <path d="M303.67 208.84C305.342 208.401 307.043 208.108 308.756 207.97C307.043 208.108 305.342 208.401 303.67 208.84L303.67 208.84Z" id="path66" fill="#D6F0FF" stroke="none" />
      <path d="M303.67 208.84C305.342 208.401 307.043 208.108 308.756 207.97C307.043 208.108 305.342 208.401 303.67 208.84L303.67 208.84Z" id="path68" fill="#000000" fill-opacity="0.1" stroke="none" />
      <path d="M312.739 207.914C315.272 208.054 317.792 208.522 320.232 209.319C317.792 208.522 315.272 208.054 312.739 207.914L312.739 207.914Z" id="path70" fill="#D6F0FF" stroke="none" />
      <path d="M312.739 207.914C315.272 208.054 317.792 208.522 320.232 209.319C317.792 208.522 315.272 208.054 312.739 207.914L312.739 207.914Z" id="path72" fill="#000000" fill-opacity="0.1" stroke="none" />
      <path d="M438.077 415.174C437.778 416.029 437.438 416.868 437.062 417.689C437.438 416.868 437.778 416.029 438.077 415.174L438.077 415.174Z" id="path74" fill="#D6F0FF" stroke="none" />
      <path d="M438.077 415.174C437.778 416.029 437.438 416.868 437.062 417.689C437.438 416.868 437.778 416.029 438.077 415.174L438.077 415.174Z" id="path76" fill="#000000" fill-opacity="0.1" stroke="none" />
      <path d="M437.672 282.569C438.191 283.812 438.621 285.09 438.952 286.395C438.621 285.09 438.191 283.812 437.672 282.569L437.672 282.569Z" id="path78" fill="#D6F0FF" stroke="none" />
      <path d="M437.672 282.569C438.191 283.812 438.621 285.09 438.952 286.395C438.621 285.09 438.191 283.812 437.672 282.569L437.672 282.569Z" id="path80" fill="#000000" fill-opacity="0.1" stroke="none" />
      <path d="M438.378 414.275C439.29 411.374 439.77 408.314 439.742 405.182L439.743 292.416L439.742 405.182C439.77 408.314 439.291 411.375 438.378 414.275L438.378 414.275Z" id="path82" fill="#D6F0FF" stroke="none" />
      <path d="M438.378 414.275C439.29 411.374 439.77 408.314 439.742 405.182L439.743 292.416L439.742 405.182C439.77 408.314 439.291 411.375 438.378 414.275L438.378 414.275Z" id="path84" fill="#000000" fill-opacity="0.1" stroke="none" />
    </g>
  </g>
</svg>